SplineFontDB: 3.0
FontName: AyannaNarrowTamil-Light
FullName: AyannaNarrowTamil-Light
FamilyName: AyannaNarrowTamil-Light
OS2StyleName: "regular"
Weight: Light
Copyright: Licensed under the SIL Open Font License 1.1 (see file OFL.txt)
Version: 0.0
ItalicAngle: 0
UnderlinePosition: 0
UnderlineWidth: 0
Ascent: 819
Descent: 205
InvalidEm: 1
UFOAscent: 900
UFODescent: -400
LayerCount: 2
Layer: 0 0 "Back" 1
Layer: 1 0 "Fore" 0
PreferredKerning: 4
FSType: 0
OS2Version: 0
OS2_WeightWidthSlopeOnly: 0
OS2_UseTypoMetrics: 0
CreationTime: 1435046519
ModificationTime: 1435758910
PfmFamily: 16
TTFWeight: 400
TTFWidth: 5
LineGap: 0
VLineGap: 0
Panose: 2 0 6 0 0 0 0 0 0 0
OS2TypoAscent: 0
OS2TypoAOffset: 1
OS2TypoDescent: 0
OS2TypoDOffset: 1
OS2TypoLinegap: 0
OS2WinAscent: 0
OS2WinAOffset: 1
OS2WinDescent: 0
OS2WinDOffset: 1
HheadAscent: 0
HheadAOffset: 1
HheadDescent: 0
HheadDOffset: 1
OS2SubXSize: 861
OS2SubYSize: 799
OS2SubXOff: 0
OS2SubYOff: 246
OS2SupXSize: 861
OS2SupYSize: 799
OS2SupXOff: 0
OS2SupYOff: 615
OS2StrikeYSize: 61
OS2StrikeYPos: 307
OS2CapHeight: 720
OS2XHeight: 520
OS2Vendor: 'ACE '
OS2CodePages: 00000001.00000000
OS2UnicodeRanges: 80108003.00002042.00000000.00000000
Lookup: 1 0 0 "ss07" { "ss07-0"  } ['ss07' ('latn' <'dflt' > ) ]
Lookup: 1 0 0 "ss06" { "ss06-0"  } ['ss06' ('latn' <'dflt' > ) ]
Lookup: 1 0 0 "ss05" { "ss05-0"  } ['ss05' ('latn' <'dflt' > ) ]
Lookup: 1 0 0 "ss04" { "ss04-0"  } ['ss04' ('latn' <'dflt' > ) ]
Lookup: 1 0 0 "ss03" { "ss03-0"  } ['ss03' ('latn' <'dflt' > ) ]
Lookup: 1 0 0 "ss02" { "ss02-0"  } ['ss02' ('latn' <'dflt' > ) ]
Lookup: 1 0 0 "ss01" { "ss01-0"  } ['ss01' ('latn' <'dflt' > ) ]
MarkAttachClasses: 1
DEI: 91125
LangName: 1033 "Licensed under the SIL Open Font License 1.1 (see file OFL.txt)" "" "Medium" "" "" "Version 2.5.0" "" "" "" "" "" "" "" "" "" "" "ayanna-tamil" "tamil"
PickledDataWithLists: "(dp1
S'com.schriftgestaltung.weight'
p2
S'Light'
p3
sS'public.glyphOrder'
p4
(lp5
S'tm_A'
p6
aS'tm_Aa'
p7
aS'tm_Ai'
p8
aS'tm_Au'
p9

StartChar: uni0B85
Encoding: 546 2949 0
GlifName: tm_A_
Width: 776
VWidth: 0
Flags: W
HStem: -134 36<166.706 355.432> 160 35<141.354 678> 298 35<219.933 321.795> 492 37<228.107 385.381>
VStem: 155 37<359.354 458.575> 524 37<84.4743 308.835> 670 36<-129 160 195 521> 670 8<160 195>
LayerCount: 2
Back
Fore
SplineSet
706 -129 m 257xfe
 670 -129 l 257
 670 521 l 257
 706 521 l 257
 706 -129 l 257xfe
524 176 m 0
 529.397992323 318.355441531 460.954357874 489.178571429 286 492 c 0
 237.976127932 492.803274409 191.007350045 458.581253 192 408 c 0
 192.82 368.27056277 218.431067961 333.833333333 274 333 c 0
 349.718981778 331.837977842 374.092592593 425.242774567 368 491 c 257
 396 488 l 257
 418.368421053 398.428571429 362.894310082 298.944408135 277 298 c 0
 200.041958042 297.153846153 155 345.384615384 155 408 c 0
 154.014925373 476.75 218.030719585 528.69458793 286 529 c 0
 484.343283582 529.941333333 565.089552239 341.674666667 561 176 c 24
 557.979238754 -1.76223776224 422.044982699 -134 270 -134 c 256
 118 -134 49.0722686571 -65.5515916924 40 26 c 256
 29.9857768336 127.057200255 108.219178082 195 206 195 c 258
 678 195 l 257
 678 160 l 257xfd
 209 160 l 258
 126.346258601 160 66.951990323 97.3609647259 77 26 c 256
 91.0760291636 -71.7723274492 192.24609375 -98 270 -98 c 256
 399.015873016 -98 518.572981393 15.2519228826 524 176 c 0
EndSplineSet
PickledDataWithLists: "(dp1
S'com.fontlab.hintData'
p2
(dp3
S'vhints'
p4
(lp5
(dp6
S'position'
p7
I60
sS'width'
p8
I32
sa(dp9
g7
I188
sg8
I32
sa(dp10
g7
I402
sg8
I32
sa(dp11
g7
I638
sg8
I33
sa(dp12
g7
I638
sg8
I11
sasS'hhints'
p13
(lp14
(dp15
g7
S'-134'
p16
sg8
I31
sa(dp17
g7
I132
sg8
I33
sa(dp18
g7
I240
sg8
I32
sa(dp19
g7
I454
sg8
I32
sass."
EndChar

StartChar: uni0B86
Encoding: 547 2950 1
GlifName: tm_A_a
Width: 758
VWidth: 0
Flags: W
LayerCount: 2
Back
SplineSet
638 -88 m 257
 639 25 687 139 808 139 c 256
 932 139 984 30 984 -90 c 256
 984 -222 912 -326 774 -327 c 256
 644 -328 572 -238 532 -171 c 257
 561 -155 l 257
 602 -220 658 -291 772 -291 c 256
 875 -291 947 -229 949 -92 c 256
 951 -4 915 104 808 104 c 256
 709 104 671 -10 671 -88 c 257
 638 -88 l 257
EndSplineSet
Refer: 0 2949 N 1 0 0 1 0 0 2
Fore
PickledDataWithLists: "(dp1
S'com.fontlab.hintData'
p2
(dp3
S'vhints'
p4
(lp5
(dp6
S'position'
p7
I638
sS'width'
p8
I33
sa(dp9
g7
I949
sg8
I35
sasS'hhints'
p10
(lp11
(dp12
g7
S'-327'
p13
sg8
I36
sa(dp14
g7
I104
sg8
I35
sass."
EndChar

StartChar: uni0B8E
Encoding: 552 2958 2
GlifName: tm_E_
Width: 694
VWidth: 0
Flags: W
HStem: -17 36<142.421 244.433> 1 21G<532 568> 233 36<117.148 238.159> 486 35<208.872 668>
VStem: 34 37<115.107 346.148> 283 37<58.919 187.892> 532 36<1 521>
LayerCount: 2
Back
Fore
SplineSet
299 521 m 260xbe
 300 486 l 260
 156.155778894 486 71 383.463035019 71 242 c 260
 71 113 114 19 196 19 c 260
 246 19 283 64 283 126 c 260
 283 188 239 233 182 233 c 260
 125 233 89 199 60 165 c 261
 43 187 l 261
 74 238 128 269 184 269 c 260
 260 269 320 209 320 126 c 260
 320 43 268 -17 197 -17 c 260
 92 -17 34 92 34 242 c 260
 34 402.924914676 134.361702128 520.04778157 299 521 c 260xbe
668 521 m 261
 668 486 l 261
 300 486 l 261
 295 521 l 261
 419.333333333 521 543.666666667 521 668 521 c 261
568 1 m 261x7e
 532 1 l 261
 532 521 l 261
 568 521 l 261
 568 1 l 261x7e
EndSplineSet
PickledDataWithLists: "(dp1
S'com.schriftgestaltung.Glyphs.ColorIndex'
p2
I6
sS'public.markColor'
p3
S'0,0.67,0.91,1'
p4
s."
EndChar

StartChar: uni0B8F
Encoding: 553 2959 3
GlifName: tm_E_e
Width: 694
VWidth: 0
Flags: W
HStem: -18 36<142.421 244.433> 0 21G<532 568> 232 36<117.148 238.159> 485 35<208.872 668>
VStem: 34 37<114.107 345.148> 283 37<57.919 186.892> 532 36<0 520>
LayerCount: 2
Back
Fore
SplineSet
568 0 m 261x7e
 290 -238 l 261
 266 -212 l 261
 532 15 l 261
 568 0 l 261x7e
EndSplineSet
Refer: 2 2958 N 1 0 0 1 0 -1 2
PickledDataWithLists: "(dp1
S'com.schriftgestaltung.Glyphs.ColorIndex'
p2
I6
sS'public.markColor'
p3
S'0,0.67,0.91,1'
p4
s."
EndChar

StartChar: uni0B87
Encoding: 548 2951 4
GlifName: tm_I_
Width: 1024
VWidth: 0
LayerCount: 2
Back
SplineSet
449 445 m 257
 384 555 l 257
 473 522 519 400 519 282 c 256
 519 199 508 187 508 187 c 257
 507 211 l 257
 635 181 675 114 676 36 c 256
 676 -69 621 -129 511 -129 c 256
 414 -129 345 -60 345 -60 c 257
 368 -60 l 257
 326 -90 282 -130 189 -129 c 256
 92 -128 26 -83 26 33 c 256
 27 145 126 190 156 203 c 257
 151 172 l 257
 127 233 84 280 84 412 c 256
 83 579 178 711 348 711 c 256
 588 711 658 505 628 227 c 257
 592 229 l 257
 619 482 565 677 348 677 c 256
 226 677 118 592 118 411 c 256
 118 304 167 215 184 187 c 257
 165 205 l 257
 165 205 229 230 338 230 c 256
 432 230 497 213 497 213 c 257
 476 199 l 257
 476 199 488 208 488 277 c 256
 488 330 474 394 449 445 c 257
244 442 m 256
 244 392 285 351 335 351 c 256
 385 351 426 392 426 442 c 256
 426 492 385 533 335 533 c 256
 285 533 244 492 244 442 c 256
212 442 m 256
 212 510 267 565 335 565 c 256
 403 565 458 510 458 442 c 256
 458 374 403 319 335 319 c 256
 267 319 212 374 212 442 c 256
339 -35 m 257
 396 15 446 93 476 192 c 257
 482 180 l 257
 459 187 406 197 340 197 c 256
 240 197 169 169 169 169 c 257
 175 168 181 183 187 182 c 257
 232 99 307 10 367 -34 c 257
 339 -35 l 257
58 32 m 256
 58 -56 117 -99 190 -99 c 256
 250 -99 297 -69 331 -40 c 257
 330 -53 l 257
 268 -7 194 91 156 164 c 257
 155 169 165 169 164 169 c 257
 120 151 58 108 58 32 c 256
377 -53 m 257
 377 -41 l 257
 401 -62 451 -97 513 -97 c 256
 601 -97 642 -45 642 38 c 256
 642 106 594 156 494 178 c 257
 508 181 l 257
 481 84 431 4 377 -53 c 257
EndSplineSet
Fore
PickledDataWithLists: "(dp1
S'com.fontlab.hintData'
p2
(dp3
S'vhints'
p4
(lp5
(dp6
S'position'
p7
I26
sS'width'
p8
I32
sa(dp9
g7
I84
sg8
I32
sa(dp10
g7
I250
sg8
I32
sa(dp11
g7
I435
sg8
I32
sa(dp12
g7
I486
sg8
I32
sa(dp13
g7
I633
sg8
I32
sasS'hhints'
p14
(lp15
(dp16
g7
S'-19'
p17
sg8
I30
sa(dp18
g7
I309
sg8
I30
sa(dp19
g7
I431
sg8
I30
sa(dp20
g7
I617
sg8
I30
sa(dp21
g7
I770
sg8
I30
sass."
EndChar

StartChar: uni0B88
Encoding: 549 2952 5
GlifName: tm_I_i
Width: 602
VWidth: 0
Flags: W
HStem: 243.7 66.5996<251.265 313.735 476.265 538.735>
VStem: 249.2 66.5996<245.765 308.235> 474.2 66.5996<245.765 308.235>
LayerCount: 2
Back
Fore
SplineSet
474.200195312 277 m 256
 474.200195312 294.999894426 489.500105574 310.299804688 507.5 310.299804688 c 256
 525.499894426 310.299804688 540.799804688 294.999894426 540.799804688 277 c 256
 540.799804688 259.000105574 525.499894426 243.700195312 507.5 243.700195312 c 256
 489.500105574 243.700195312 474.200195312 259.000105574 474.200195312 277 c 256
249.200195312 277 m 256
 249.200195312 294.999894426 264.500105574 310.299804688 282.5 310.299804688 c 256
 300.499894426 310.299804688 315.799804688 294.999894426 315.799804688 277 c 256
 315.799804688 259.000105574 300.499894426 243.700195312 282.5 243.700195312 c 256
 264.500105574 243.700195312 249.200195312 259.000105574 249.200195312 277 c 256
197 520 m 257
 197 485 l 257
 572 485 l 1
 572 520 l 257
 197 520 l 257
106 0 m 257
 107 485 l 257
 376 485 l 257
 375 0 l 257
 411 0 l 257
 412 520 l 257
 71 520 l 257
 70 0 l 257
 106 0 l 257
EndSplineSet
PickledDataWithLists: "(dp1
S'com.schriftgestaltung.Glyphs.ColorIndex'
p2
I6
sS'public.markColor'
p3
S'0,0.67,0.91,1'
p4
s."
EndChar

StartChar: uni0BB2
Encoding: 573 2994 8
GlifName: tm_L_a
Width: 1024
VWidth: 0
LayerCount: 2
Back
SplineSet
59 118 m 256
 59 186 114 241 182 241 c 256
 250 241 305 186 305 118 c 256
 305 50 251 -5 183 -5 c 256
 115 -5 59 50 59 118 c 256
91 118 m 256
 91 68 132 27 182 27 c 256
 232 27 273 68 273 118 c 256
 273 168 232 209 182 209 c 256
 132 209 91 168 91 118 c 256
139 3 m 256
 -41 77 -20 516 235 516 c 256
 234 482 l 256
 26 482 -12 92 175 17 c 256
 139 3 l 256
469 497 m 257
 487 525 l 257
 555 495 639 407 639 249 c 256
 639 129 618 -5 489 -5 c 256
 387 -5 352 59 352 131 c 256
 352 233 393 329 359 405 c 256
 332 464 284 481 234 482 c 257
 234 516 l 257
 299 515 353 491 390 423 c 256
 432 346 387 211 388 132 c 256
 389 52 437 27 490 27 c 256
 584 27 606 140 606 248 c 256
 606 369 544 462 469 497 c 257
EndSplineSet
Fore
PickledDataWithLists: "(dp1
S'com.fontlab.hintData'
p2
(dp3
S'vhints'
p4
(lp5
(dp6
S'position'
p7
I278
sS'width'
p8
I1
sa(dp9
g7
I313
sg8
I32
sa(dp10
g7
I394
sg8
I36
sa(dp11
g7
I665
sg8
I33
sasS'hhints'
p12
(lp13
(dp14
g7
S'-1'
p15
sg8
I32
sa(dp16
g7
I213
sg8
I32
sa(dp17
g7
I486
sg8
I34
sass."
EndChar

StartChar: uni0BB3
Encoding: 574 2995 9
GlifName: tm_L_la
Width: 892
VWidth: 0
Flags: W
HStem: -17 36<148.421 250.433> 233 36<123.148 244.159> 499 36<185.399 330.208>
VStem: 40 37<115.107 363.81> 289 37<58.919 187.892>
LayerCount: 2
Back
SplineSet
414 1 m 261
 381 1 l 261
 381 521 l 261
 414 521 l 261
 414 1 l 261
858 521 m 261
 858 486 l 261
 381 486 l 261
 381 521 l 261
 858 521 l 261
662 1 m 261
 630 1 l 261
 630 521 l 261
 662 521 l 261
 662 1 l 261
65 122 m 260
 65 190 120 245 188 245 c 260
 256 245 311 190 311 122 c 260
 311 54 257 -1 189 -1 c 260
 121 -1 65 54 65 122 c 260
97 122 m 260
 97 72 138 31 188 31 c 260
 238 31 279 72 279 122 c 260
 279 172 238 213 188 213 c 260
 138 213 97 172 97 122 c 260
145 7 m 260
 -43 81 -21 520 245 520 c 260
 244 486 l 260
 22 486 -19 96 181 21 c 260
 145 7 l 260
381 300 m 260
 381 336 387 370 369 405 c 260
 340 466 294 485 244 486 c 261
 244 520 l 261
 309 519 362 496 396 424 c 260
 418 380 414 339 414 296 c 260
 381 300 l 260
EndSplineSet
Fore
SplineSet
567 520 m 257
 567 485 l 257
 872 485 l 1
 872 520 l 257
 567 520 l 257
476 0 m 257
 477 485 l 257
 716 485 l 257
 715 0 l 257
 751 0 l 257
 752 520 l 257
 441 520 l 257
 440 0 l 257
 476 0 l 257
188 233 m 256
 245 233 289 188 289 126 c 256
 289 64 252 19 202 19 c 256
 120 19 77 113 77 242 c 256
 77 391 144 499 256 499 c 256
 373.635869565 499 441 397.516129032 441 257 c 260
 476 251 l 257
 478.009049774 417 394.628649657 536.042004848 255 535 c 256
 121 534 40 411 40 242 c 256
 40 92 98 -17 203 -17 c 256
 274 -17 326 43 326 126 c 256
 326 209 266 269 190 269 c 256
 134 269 80 238 49 187 c 257
 66 165 l 257
 95 199 131 233 188 233 c 256
EndSplineSet
PickledDataWithLists: "(dp1
S'com.schriftgestaltung.Glyphs.ColorIndex'
p2
I6
sS'public.markColor'
p3
S'0,0.67,0.91,1'
p4
s."
EndChar

StartChar: uni0BB4
Encoding: 575 2996 10
GlifName: tm_L_lla
Width: 1024
VWidth: 0
LayerCount: 2
Back
SplineSet
282 2 m 257
 316 2 l 257
 316 -23 l 258
 316 -104 409 -111 504 -111 c 258
 576 -111 l 257
 576 -111 l 257
 576 -161 l 257
 444 -161 391 -303 225 -305 c 256
 175 -306 114 -286 114 -205 c 256
 114 -160 145 -119 195 -100 c 256
 210 -126 l 256
 167 -147 147 -168 147 -206 c 256
 147 -242 167 -274 224 -274 c 256
 357 -274 397 -176 509 -141 c 257
 358 -153 282 -114 282 -24 c 258
 282 2 l 257
531 1 m 257
 46 1 l 256
 43 1 l 257
 43 517 l 257
 76 517 l 257
 76 34 l 257
 282 34 l 257
 282 313 l 258
 282 494 388 524 440 524 c 256
 579 523 618 377 617 284 c 256
 615 156 531 1 531 1 c 257
508 34 m 257
 508 34 584 169 583 285 c 256
 583 386 537 490 442 490 c 256
 359 490 317 422 316 312 c 258
 316 34 l 257
 508 34 l 257
EndSplineSet
Fore
PickledDataWithLists: "(dp1
S'com.fontlab.hintData'
p2
(dp3
S'vhints'
p4
(lp5
(dp6
S'position'
p7
S'-27'
p8
sS'width'
p9
I33
sa(dp10
g7
I212
sg9
I34
sa(dp11
g7
I513
sg9
I34
sasS'hhints'
p12
(lp13
(dp14
g7
I1
sg9
I33
sa(dp15
g7
I490
sg9
I34
sass."
EndChar

StartChar: uni0BAE
Encoding: 569 2990 11
GlifName: tm_M_a
Width: 1024
VWidth: 0
LayerCount: 2
Back
SplineSet
544 2 m 256
 545 1 l 257
 60 1 l 256
 57 1 l 257
 57 517 l 257
 90 517 l 257
 90 34 l 257
 296 34 l 257
 296 313 l 258
 296 494 402 524 454 524 c 256
 593 523 632 377 631 284 c 256
 629 159 567 47 544 2 c 256
522 34 m 257
 522 34 598 169 597 285 c 256
 597 386 551 490 456 490 c 256
 373 490 331 422 330 312 c 258
 330 34 l 257
 522 34 l 257
EndSplineSet
Fore
PickledDataWithLists: "(dp1
S'com.fontlab.hintData'
p2
(dp3
S'vhints'
p4
(lp5
(dp6
S'position'
p7
I57
sS'width'
p8
I33
sa(dp9
g7
I296
sg8
I34
sa(dp10
g7
I597
sg8
I34
sasS'hhints'
p11
(lp12
(dp13
g7
I1
sg8
I33
sa(dp14
g7
I490
sg8
I34
sass."
EndChar

StartChar: uni0BF3
Encoding: 608 3059 13
GlifName: tm_N_aal
Width: 674
VWidth: 0
Flags: W
HStem: -17 36<148.421 250.433> 233 36<123.148 244.159> 499 36<199.098 357.367>
VStem: 40 37<115.107 357.718> 289 37<58.919 187.892> 471 38<133.101 373.304>
LayerCount: 2
Back
Fore
SplineSet
188 233 m 256
 245 233 289 188 289 126 c 256
 289 64 252 19 202 19 c 256
 120 19 77 113 77 242 c 256
 77 391 151 499 276 499 c 256
 399 499 471 400.451612903 471 264 c 256
 471 200.422018349 458 102.935779817 403 33 c 257
 403 0 l 257
 654 0 l 257
 654 35 l 257
 448 35 l 257
 500.866666667 115.574074074 509 212.050925926 509 264 c 256
 511.008583691 422.401408451 422.630901288 535.954225352 275 535 c 256
 129 534 40 411 40 242 c 256
 40 92 98 -17 203 -17 c 256
 274 -17 326 43 326 126 c 256
 326 209 266 269 190 269 c 256
 134 269 80 238 49 187 c 257
 66 165 l 257
 95 199 131 233 188 233 c 256
EndSplineSet
PickledDataWithLists: "(dp1
S'com.schriftgestaltung.Glyphs.ColorIndex'
p2
I6
sS'public.markColor'
p3
S'0,0.67,0.91,1'
p4
s."
EndChar

StartChar: uni0B92
Encoding: 555 2962 18
GlifName: tm_O_
Width: 1024
VWidth: 0
LayerCount: 2
Back
SplineSet
68 242 m 256
 68 192 109 151 159 151 c 256
 209 151 250 192 250 242 c 256
 250 292 209 333 159 333 c 256
 109 333 68 292 68 242 c 256
36 242 m 256
 36 310 91 365 159 365 c 256
 227 365 282 310 282 242 c 256
 282 174 227 119 159 119 c 256
 91 119 36 174 36 242 c 256
50 185 m 257
 -6 278 40 527 266 527 c 256
 454 527 515 377 515 232 c 256
 515 64 401 -37 331 -71 c 257
 330 -75 334 -53 333 -56 c 257
 370 -86 432 -106 489 -112 c 257
 490 -166 l 257
 396 -179 403 -261 245 -261 c 256
 151 -261 108 -195 93 -166 c 257
 116 -147 l 257
 133 -175 165 -229 248 -229 c 256
 369 -229 389 -146 473 -135 c 257
 463 -144 l 257
 400 -129 275 -111 275 12 c 256
 275 34 283 57 283 57 c 257
 314 57 l 257
 308 42 305 27 305 12 c 256
 305 -19 317 -42 329 -51 c 257
 308 -35 l 257
 386 -10 481 106 483 230 c 256
 485 341 438 494 266 494 c 256
 82 494 30 286 76 206 c 257
 50 185 l 257
EndSplineSet
Fore
PickledDataWithLists: "(dp1
S'com.fontlab.hintData'
p2
(dp3
S'vhints'
p4
(lp5
(dp6
S'position'
p7
I250
sS'width'
p8
I32
sa(dp9
g7
I275
sg8
I30
sa(dp10
g7
I483
sg8
I32
sasS'hhints'
p11
(lp12
(dp13
g7
S'-261'
p14
sg8
I32
sa(dp15
g7
S'-166'
p16
sg8
I54
sa(dp17
g7
I119
sg8
I32
sa(dp18
g7
I333
sg8
I32
sa(dp19
g7
I494
sg8
I33
sass."
EndChar

StartChar: uni0B93
Encoding: 556 2963 19
GlifName: tm_O_o
Width: 1024
VWidth: 0
LayerCount: 2
Back
SplineSet
99 -165 m 256
 99 -182 113 -196 130 -196 c 256
 148 -196 162 -182 162 -165 c 256
 162 -148 148 -134 130 -134 c 256
 113 -134 99 -148 99 -165 c 256
69 -166 m 256
 69 -132 96 -103 130 -103 c 256
 164 -103 192 -131 192 -165 c 256
 192 -199 164 -227 130 -227 c 256
 96 -227 69 -200 69 -166 c 256
44 242 m 256
 44 192 85 151 135 151 c 256
 185 151 226 192 226 242 c 256
 226 292 185 333 135 333 c 256
 85 333 44 292 44 242 c 256
12 242 m 256
 12 310 67 365 135 365 c 256
 203 365 258 310 258 242 c 256
 258 174 203 119 135 119 c 256
 67 119 12 174 12 242 c 256
26 185 m 257
 -30 278 16 527 242 527 c 256
 430 527 491 377 491 232 c 256
 491 64 377 -37 307 -71 c 257
 306 -75 310 -53 309 -56 c 257
 346 -86 408 -106 465 -112 c 257
 466 -166 l 257
 372 -179 379 -261 221 -261 c 256
 77 -261 71 -195 69 -166 c 257
 99 -165 l 257
 96 -193 121 -229 224 -229 c 256
 345 -229 365 -146 449 -135 c 257
 439 -144 l 257
 376 -129 251 -111 251 12 c 256
 251 34 259 57 259 57 c 257
 290 57 l 257
 284 42 281 27 281 12 c 256
 281 -19 293 -42 305 -51 c 257
 284 -35 l 257
 362 -10 457 106 459 230 c 256
 461 341 414 494 242 494 c 256
 58 494 6 286 52 206 c 257
 26 185 l 257
EndSplineSet
Fore
EndChar

StartChar: uni0BAA
Encoding: 568 2986 20
GlifName: tm_P_a
Width: 561
VWidth: 0
Flags: W
LayerCount: 2
Back
SplineSet
455 520 m 261
 455 35 l 261
 106 35 l 261
 106 520 l 261
 70 520 l 261
 70 0 l 261
 491 0 l 261
 491 520 l 261
 455 520 l 261
EndSplineSet
Fore
SplineSet
455 520 m 261
 455 35 l 261
 106 35 l 261
 106 520 l 261
 70 520 l 261
 70 0 l 261
 491 0 l 261
 491 520 l 261
 455 520 l 261
EndSplineSet
PickledDataWithLists: "(dp1
S'com.schriftgestaltung.Glyphs.ColorIndex'
p2
I5
sS'public.markColor'
p3
S'0.04,0.57,0.04,1'
p4
s."
EndChar

StartChar: uni0BB0
Encoding: 571 2992 21
GlifName: tm_R_a
Width: 532
VWidth: 0
Flags: W
HStem: 0 21G<70 106.041 375 411.038> 485 35<107 512>
VStem: 70 36<0 485> 376 36<15 485>
LayerCount: 2
Back
SplineSet
476 25 m 257
 502 0 l 257
 206 -295 l 257
 181 -270 l 257
 476 25 l 257
113 0 m 257
 80 0 l 257
 80 520 l 257
 113 520 l 257
 113 0 l 257
497 520 m 257
 497 485 l 257
 80 485 l 257
 80 520 l 257
 497 520 l 257
502 0 m 257
 469 0 l 257
 469 520 l 257
 502 520 l 257
 502 0 l 257
EndSplineSet
Fore
SplineSet
411 0 m 257
 133 -238 l 257
 109 -212 l 257
 375 15 l 257
 411 0 l 257
197 520 m 257
 512 520 l 257
 512 485 l 1
 197 485 l 257
 197 520 l 257
106 0 m 257
 70 0 l 257
 71 520 l 257
 412 520 l 257
 411 0 l 257
 375 0 l 257
 376 485 l 257
 107 485 l 257
 106 0 l 257
EndSplineSet
PickledDataWithLists: "(dp1
S'com.schriftgestaltung.Glyphs.ColorIndex'
p2
I6
sS'public.markColor'
p3
S'0,0.67,0.91,1'
p4
sS'com.fontlab.hintData'
p5
(dp6
S'vhints'
p7
(lp8
(dp9
S'position'
p10
I80
sS'width'
p11
I33
sa(dp12
g10
I469
sg11
I33
sasS'hhints'
p13
(lp14
(dp15
g10
I0
sg11
I21
sa(dp16
g10
I485
sg11
I35
sass."
EndChar

StartChar: uni0BB1
Encoding: 572 2993 22
GlifName: tm_R_ra
Width: 1024
VWidth: 0
LayerCount: 2
Back
SplineSet
352 0 m 257
 320 0 l 257
 320 380 l 257
 352 380 l 257
 352 0 l 257
352 390 m 1281
47 360 m 256
 47 442 97 524 202 524 c 256
 317 524 353 434 352 372 c 257
 321 372 l 257
 320 477 243 493 201 493 c 256
 143 493 79 451 79 361 c 256
 47 360 l 256
352 0 m 257
 320 0 l 1281
79 0 m 257
 47 0 l 257
 47 380 l 257
 79 380 l 257
 79 0 l 257
352 396 m 256
 320 403 l 256
 320 416 343 518 464 518 c 256
 628 518 629 329 629 209 c 256
 629 48 573 -128 311 -128 c 258
 255 -128 l 258
 188 -128 114 -131 115 -201 c 256
 116 -243 123 -289 213 -299 c 257
 214 -331 l 257
 116 -325 81 -269 81 -202 c 256
 81 -86 205 -95 284 -95 c 258
 310 -95 l 258
 553 -95 595 72 595 209 c 256
 595 317 587 484 464 484 c 256
 408 484 352 447 352 396 c 256
EndSplineSet
Fore
EndChar

StartChar: uni0BB6
Encoding: 577 2998 23
GlifName: tm_S_ha
Width: 1024
VWidth: 0
LayerCount: 2
Back
SplineSet
297 485 m 257
 297 520 l 257
 719 520 l 257
 719 485 l 257
 297 485 l 257
687 520 m 257
 719 520 l 257
 719 130 l 257
 719 230 l 257
 687 230 l 257
 687 129 l 257
 687 520 l 257
414 520 m 257
 446 520 l 257
 446 130 l 257
 414 130 l 257
 414 520 l 257
719 254 m 256
 719 132 720 -4 564 -4 c 256
 429 -4 413 86 414 148 c 257
 445 148 l 257
 446 43 503 27 565 27 c 256
 687 27 687 142 687 252 c 256
 719 254 l 256
24 520 m 257
 56 520 l 257
 56 224 l 258
 56 52 117 27 175 27 c 256
 289 27 297 126 297 224 c 258
 297 224 297 420 297 520 c 257
 329 520 l 257
 329 224 l 258
 329 108 320 -4 174 -4 c 256
 46 -4 24 100 24 224 c 258
 24 520 l 257
EndSplineSet
Fore
EndChar

StartChar: uni0B9F
Encoding: 563 2975 26
GlifName: tm_T_ta
Width: 723
VWidth: 0
Flags: W
LayerCount: 2
Back
Fore
SplineSet
693 35 m 257
 106 35 l 257
 106 520 l 257
 70 520 l 257
 70 0 l 257
 693 0 l 257
 693 35 l 257
EndSplineSet
PickledDataWithLists: "(dp1
S'com.schriftgestaltung.Glyphs.ColorIndex'
p2
I6
sS'public.markColor'
p3
S'0,0.67,0.91,1'
p4
s."
EndChar

StartChar: uni0B89
Encoding: 550 2953 27
GlifName: tm_U_
Width: 1024
VWidth: 0
LayerCount: 2
Back
SplineSet
83 364 m 256
 83 314 124 273 174 273 c 256
 224 273 265 314 265 364 c 256
 265 414 224 455 174 455 c 256
 124 455 83 414 83 364 c 256
51 364 m 256
 51 432 106 487 174 487 c 256
 242 487 297 432 297 364 c 256
 297 296 243 241 175 241 c 256
 107 241 51 296 51 364 c 256
165 455 m 257
 158 486 l 257
 247 501 359 446 360 290 c 256
 361 105 184 32 46 9 c 257
 17 18 l 257
 17 35 l 257
 110 58 327 108 327 290 c 256
 327 421 233 469 165 455 c 257
17 0 m 257
 17 35 l 257
 647 35 l 257
 647 0 l 257
 17 0 l 257
EndSplineSet
Fore
PickledDataWithLists: "(dp1
S'com.fontlab.hintData'
p2
(dp3
S'vhints'
p4
(lp5
(dp6
S'position'
p7
I49
sS'width'
p8
I33
sa(dp9
g7
I245
sg8
I33
sa(dp10
g7
I327
sg8
I33
sasS'hhints'
p11
(lp12
(dp13
g7
I0
sg8
I35
sa(dp14
g7
I195
sg8
I34
sass."
Substitution2: "ss06-0" tm_U.ss06
Substitution2: "ss05-0" tm_U.ss05
Substitution2: "ss04-0" tm_U.ss04
Substitution2: "ss03-0" tm_U.ss03
Substitution2: "ss02-0" tm_U.ss02
Substitution2: "ss01-0" tm_U.ss01
EndChar

StartChar: uni0B8A
Encoding: 551 2954 28
GlifName: tm_U_u
Width: 1024
VWidth: 0
LayerCount: 2
Back
SplineSet
204 0 m 257
 204 36 l 257
 840 36 l 257
 840 0 l 257
 204 0 l 257
461 141 m 256
 461 162 478 179 499 179 c 256
 520 179 537 162 537 141 c 256
 537 120 520 103 499 103 c 256
 478 103 461 120 461 141 c 256
520 347 m 257
 443 343 408 269 408 201 c 256
 408 144 435 72 499 72 c 256
 537 72 568 103 568 141 c 256
 568 179 537 210 499 210 c 256
 474 210 452 197 440 177 c 257
 436 202 439 230 448 254 c 256
 461 290 488 315 527 316 c 257
 550 315 569 307 583 281 c 256
 586 275 588 269 588 262 c 258
 588 73 l 257
 619 73 l 257
 619 230 l 258
 619 238 620 247 619 255 c 257
 619 316 l 257
 712 316 l 257
 712 73 l 257
 743 73 l 257
 743 316 l 257
 841 316 l 257
 841 348 l 257
 588 348 l 257
 588 327 l 257
 569 340 557 346 520 347 c 257
EndSplineSet
Refer: 27 2953 N 1 0 0 0.995 0 1 2
Fore
EndChar

StartChar: uni0BB5
Encoding: 576 2997 29
GlifName: tm_V_a
Width: 772
VWidth: 0
Flags: W
HStem: -17 36<148.421 250.433> 233 36<123.148 244.159> 499 36<199.098 353.809>
VStem: 40 37<115.107 357.718> 289 37<58.919 187.892> 471 37<129.698 365.547>
LayerCount: 2
Back
SplineSet
204 191 m 260
 237.297158518 191 263 163.66352983 263 126 c 260
 263 91.8128417969 240.885244694 67 211 67 c 260
 153.271484375 67 123 140.766951127 123 242 c 260
 123 354.474609375 184.357421875 436 288 436 c 260
 400.735881696 436 462 349.814453125 462 251 c 260
 462 194.935546875 440.606377964 128.084960938 407 80 c 261
 407 0 l 261
 746 0 l 261
 746 520 l 261
 641 520 l 261
 641 90 l 261
 514 90 l 261
 541.463689631 136.615234375 555.447671694 196.002924901 556 248 c 260
 557.67578125 405.760742188 456.711669442 536.075453918 287 535 c 260
 129.1953125 534 33 411 33 242 c 260
 33 91.4208494208 97.0490856799 -18 213 -18 c 260
 297.194758858 -18 345 42.4195804196 345 126 c 260
 345 213.642998589 286.323940805 277 212 277 c 260
 150.807876694 277 105.120315232 239.195038377 75 177 c 261
 116 127 l 261
 134.602539062 159 162.884765625 191 204 191 c 260
EndSplineSet
Fore
SplineSet
188 233 m 260
 245 233 289 188 289 126 c 260
 289 64 252 19 202 19 c 260
 120 19 77 113 77 242 c 260
 77 391 151 499 276 499 c 260
 399 499 471 395 471 251 c 260
 471 191 458 99 403 33 c 261
 403 0 l 261
 702 0 l 261
 702 520 l 261
 666 520 l 261
 666 35 l 261
 448 35 l 261
 500 111 508 202 508 251 c 260
 510 417 422 536 275 535 c 260
 129 534 40 411 40 242 c 260
 40 92 98 -17 203 -17 c 260
 274 -17 326 43 326 126 c 260
 326 209 266 269 190 269 c 260
 134 269 80 238 49 187 c 261
 66 165 l 261
 95 199 131 233 188 233 c 260
EndSplineSet
PickledDataWithLists: "(dp1
S'com.schriftgestaltung.Glyphs.ColorIndex'
p2
I5
sS'public.markColor'
p3
S'0.04,0.57,0.04,1'
p4
s."
Substitution2: "ss07-0" tm_Va.ss07
Substitution2: "ss06-0" tm_Va.ss06
Substitution2: "ss05-0" tm_Va.ss05
Substitution2: "ss04-0" tm_Va.ss04
Substitution2: "ss03-0" tm_Va.ss03
Substitution2: "ss02-0" tm_Va.ss02
Substitution2: "ss01-0" tm_Va.ss01
EndChar

StartChar: uni0B83
Encoding: 545 2947 30
GlifName: tm_V_isarga
Width: 1024
VWidth: 0
LayerCount: 2
Back
SplineSet
475 106 m 256
 475 170 527 222 591 222 c 256
 655 222 707 170 707 106 c 256
 707 42 655 -10 591 -10 c 256
 527 -10 475 42 475 106 c 256
503 106 m 256
 503 58 542 19 590 19 c 256
 639 19 677 58 677 106 c 256
 677 154 639 193 590 193 c 256
 542 193 503 154 503 106 c 256
27 106 m 256
 27 170 79 222 143 222 c 256
 207 222 259 170 259 106 c 256
 259 42 207 -10 143 -10 c 256
 79 -10 27 42 27 106 c 256
55 106 m 256
 55 58 94 19 142 19 c 256
 191 19 229 58 229 106 c 256
 229 154 191 193 142 193 c 256
 94 193 55 154 55 106 c 256
246 678 m 256
 246 742 299 794 363 794 c 256
 426 794 479 742 479 678 c 256
 479 614 426 562 363 562 c 256
 299 562 246 614 246 678 c 256
275 678 m 256
 275 630 314 591 362 591 c 256
 410 591 449 630 449 678 c 256
 449 726 410 765 362 765 c 256
 314 765 275 726 275 678 c 256
EndSplineSet
Fore
EndChar

StartChar: uni0BBE
Encoding: 581 3006 31
GlifName: tm_V_owelA_a
Width: 532
VWidth: 0
Flags: HW
HStem: 0 21G<70 106.041 375 411.038> 485 35<107 512>
VStem: 70 36<0 485> 375 36<0 485>
LayerCount: 2
Back
Fore
SplineSet
197 520 m 257
 512 520 l 257
 512 485 l 5
 197 485 l 261
 197 520 l 257
106 0 m 257
 70 0 l 257
 71 520 l 257
 412 520 l 257
 411 0 l 257
 375 0 l 257
 376 485 l 261
 107 485 l 261
 106 0 l 257
EndSplineSet
PickledDataWithLists: "(dp1
S'com.schriftgestaltung.Glyphs.ColorIndex'
p2
I6
sS'public.markColor'
p3
S'0,0.67,0.91,1'
p4
s."
EndChar

StartChar: uni0BAF
Encoding: 570 2991 32
GlifName: tm_Y_a
Width: 1024
VWidth: 0
LayerCount: 2
Back
SplineSet
465 520 m 257
 497 520 l 257
 497 130 l 257
 497 0 l 257
 465 0 l 257
 465 129 l 257
 465 520 l 257
469 0 m 257
 469 35 l 257
 787 35 l 257
 787 0 l 257
 469 0 l 257
754 520 m 257
 787 520 l 257
 787 0 l 257
 754 0 l 257
 754 520 l 257
192 520 m 257
 224 520 l 257
 224 150 l 258
 224 40 285 27 343 27 c 256
 465 27 465 142 465 252 c 257
 497 254 l 257
 497 132 498 -4 342 -4 c 256
 214 -4 192 72 192 150 c 258
 192 520 l 257
EndSplineSet
Fore
EndChar

StartChar: tml_Va.light
Encoding: 65537 -1 33
GlifName: tml_V_a.light
Width: 756
VWidth: 0
Flags: W
HStem: -17 36<132.421 234.433> 233 36<107.148 228.159> 499 36<183.098 337.809>
VStem: 24 37<115.107 357.718> 273 37<58.919 187.892> 455 37<129.698 365.547>
LayerCount: 2
Back
Fore
SplineSet
172 233 m 260
 229 233 273 188 273 126 c 260
 273 64 236 19 186 19 c 260
 104 19 61 113 61 242 c 260
 61 391 135 499 260 499 c 260
 383 499 455 395 455 251 c 260
 455 191 442 99 387 33 c 261
 387 0 l 261
 686 0 l 261
 686 520 l 261
 650 520 l 261
 650 35 l 261
 432 35 l 261
 484 111 492 202 492 251 c 260
 494 417 406 536 259 535 c 260
 113 534 24 411 24 242 c 260
 24 92 82 -17 187 -17 c 260
 258 -17 310 43 310 126 c 260
 310 209 250 269 174 269 c 260
 118 269 64 238 33 187 c 261
 50 165 l 261
 79 199 115 233 172 233 c 260
EndSplineSet
EndChar

StartChar: uni0BED
Encoding: 602 3053 34
Width: 694
VWidth: 0
Flags: W
HStem: -17 36<142.421 244.433> 1 21G<532 568> 233 36<117.148 238.159> 486 35<208.872 558>
VStem: 34 37<115.107 346.148> 283 37<58.919 187.892> 532 36<1 486> 532 26<486 521>
LayerCount: 2
Back
Fore
SplineSet
299 521 m 256xbc
 300 486 l 256
 156.155778894 486 71 383.463035019 71 242 c 256
 71 113 114 19 196 19 c 256
 246 19 283 64 283 126 c 256
 283 188 239 233 182 233 c 256
 125 233 89 199 60 165 c 257
 43 187 l 257
 74 238 128 269 184 269 c 256
 260 269 320 209 320 126 c 256
 320 43 268 -17 197 -17 c 256
 92 -17 34 92 34 242 c 256
 34 402.924914676 134.361702128 520.04778157 299 521 c 256xbc
558 521 m 261x3d
 558 486 l 257
 300 486 l 257
 295 521 l 261
 558 521 l 261x3d
568 1 m 257x7e
 532 1 l 257x7e
 532 521 l 257x7d
 568 521 l 257
 568 1 l 257x7e
EndSplineSet
EndChar
